<svg xmlns="http://www.w3.org/2000/svg" width="1200" height="520" viewBox="0 0 1200 520">
  <rect width="1200" height="520" fill="#f7f8fa"/>
  <rect x="64" y="55" width="1072" height="410" rx="28" fill="#ffffff" stroke="#d8e0e7"/>
  <circle cx="600" cy="260" r="78" fill="#17202a"/>
  <text x="552" y="268" font-family="Arial, sans-serif" font-size="25" font-weight="700" fill="#ffffff">AI</text>
  <g font-family="Arial, sans-serif" font-size="23" font-weight="700">
    <rect x="170" y="120" width="210" height="82" rx="18" fill="#eef2ff"/><text x="240" y="170" fill="#3730a3">Data</text>
    <rect x="820" y="120" width="210" height="82" rx="18" fill="#e6f4f1"/><text x="875" y="170" fill="#0f766e">Workflow</text>
    <rect x="170" y="320" width="210" height="82" rx="18" fill="#fff4df"/><text x="225" y="370" fill="#b45309">Governance</text>
    <rect x="820" y="320" width="210" height="82" rx="18" fill="#fff1f2"/><text x="875" y="370" fill="#be123c">Metrics</text>
  </g>
  <path d="M385 160 L525 230 M815 160 L675 230 M385 360 L525 290 M815 360 L675 290" stroke="#64748b" stroke-width="7" stroke-linecap="round"/>
  <text x="150" y="455" font-family="Arial, sans-serif" font-size="22" fill="#5f6b76">Deployment is workflow + accountability + measurement, not tool adoption alone.</text>
</svg>
